{
	"asset":{
		"generator":"Khronos glTF Blender I/O v5.0.21",
		"version":"2.0"
	},
	"extensionsUsed":[
		"KHR_texture_transform"
	],
	"extensionsRequired":[
		"KHR_texture_transform"
	],
	"scene":0,
	"scenes":[
		{
			"name":"Scene",
			"nodes":[
				0,
				1,
				2,
				3,
				4,
				5
			]
		}
	],
	"nodes":[
		{
			"mesh":0,
			"name":"door.001",
			"translation":[
				0.05035218968987465,
				0,
				0.4901540279388428
			]
		},
		{
			"mesh":1,
			"name":"door.002",
			"translation":[
				0,
				0,
				0.5001537799835205
			]
		},
		{
			"mesh":2,
			"name":"handle.001",
			"translation":[
				0.020455460995435715,
				1.073769211769104,
				-0.5605862140655518
			]
		},
		{
			"mesh":3,
			"name":"door.003",
			"translation":[
				0,
				0,
				0.5001537799835205
			]
		},
		{
			"mesh":4,
			"name":"door.004",
			"scale":[
				0.8078573346138,
				0.0812850221991539,
				1
			],
			"translation":[
				0.037385184317827225,
				1.007457971572876,
				-0.4349980354309082
			]
		},
		{
			"mesh":5,
			"name":"Plane",
			"translation":[
				0.04395066574215889,
				0,
				-0.19331073760986328
			]
		}
	],
	"materials":[
		{
			"doubleSided":true,
			"name":"Baked_B_4.002",
			"normalTexture":{
				"extensions":{
					"KHR_texture_transform":{
						"offset":[
							0.5999999642372131,
							1.1000000014901161
						],
						"scale":[
							1.899999976158142,
							-0.10000000149011612
						]
					}
				},
				"index":0
			},
			"pbrMetallicRoughness":{
				"baseColorTexture":{
					"extensions":{
						"KHR_texture_transform":{
							"offset":[
								0.5999999642372131,
								1.1000000014901161
							],
							"scale":[
								1.899999976158142,
								-0.10000000149011612
							]
						}
					},
					"index":1
				},
				"metallicRoughnessTexture":{
					"extensions":{
						"KHR_texture_transform":{
							"offset":[
								0.5999999642372131,
								1.1000000014901161
							],
							"scale":[
								1.899999976158142,
								-0.10000000149011612
							]
						}
					},
					"index":2
				}
			}
		},
		{
			"doubleSided":true,
			"name":"Baked_B_4.001",
			"normalTexture":{
				"extensions":{
					"KHR_texture_transform":{
						"offset":[
							0,
							0.8999998569488525
						],
						"scale":[
							1.899999976158142,
							0.10000014305114746
						]
					}
				},
				"index":3
			},
			"pbrMetallicRoughness":{
				"baseColorTexture":{
					"extensions":{
						"KHR_texture_transform":{
							"offset":[
								0,
								0.8999998569488525
							],
							"scale":[
								1.899999976158142,
								0.10000014305114746
							]
						}
					},
					"index":4
				},
				"metallicRoughnessTexture":{
					"extensions":{
						"KHR_texture_transform":{
							"offset":[
								0,
								0.8999998569488525
							],
							"scale":[
								1.899999976158142,
								0.10000014305114746
							]
						}
					},
					"index":5
				}
			}
		},
		{
			"doubleSided":true,
			"name":"Blackhandle",
			"pbrMetallicRoughness":{
				"baseColorTexture":{
					"index":6
				},
				"metallicFactor":0.10000000149011612,
				"roughnessFactor":0.8999999761581421
			}
		},
		{
			"doubleSided":true,
			"name":"numberkey",
			"pbrMetallicRoughness":{
				"baseColorTexture":{
					"index":7
				},
				"metallicFactor":0.10000000149011612,
				"roughnessFactor":0.8999999761581421
			}
		},
		{
			"doubleSided":true,
			"name":"Baked_B_4.002",
			"normalTexture":{
				"extensions":{
					"KHR_texture_transform":{
						"offset":[
							0.5999999642372131,
							1.1000000014901161
						],
						"scale":[
							1.899999976158142,
							-0.10000000149011612
						]
					}
				},
				"index":0,
				"texCoord":1
			},
			"pbrMetallicRoughness":{
				"baseColorTexture":{
					"extensions":{
						"KHR_texture_transform":{
							"offset":[
								0.5999999642372131,
								1.1000000014901161
							],
							"scale":[
								1.899999976158142,
								-0.10000000149011612
							]
						}
					},
					"index":1,
					"texCoord":1
				},
				"metallicRoughnessTexture":{
					"extensions":{
						"KHR_texture_transform":{
							"offset":[
								0.5999999642372131,
								1.1000000014901161
							],
							"scale":[
								1.899999976158142,
								-0.10000000149011612
							]
						}
					},
					"index":2,
					"texCoord":1
				}
			}
		},
		{
			"doubleSided":true,
			"name":"Gold",
			"pbrMetallicRoughness":{
				"metallicFactor":0.8227272629737854
			}
		},
		{
			"doubleSided":true,
			"name":"Baked_B_4.002",
			"normalTexture":{
				"extensions":{
					"KHR_texture_transform":{
						"offset":[
							0.5999999642372131,
							1.1000000014901161
						],
						"scale":[
							1.899999976158142,
							-0.10000000149011612
						]
					}
				},
				"index":0,
				"texCoord":1
			},
			"pbrMetallicRoughness":{
				"baseColorTexture":{
					"extensions":{
						"KHR_texture_transform":{
							"offset":[
								0.5999999642372131,
								1.1000000014901161
							],
							"scale":[
								1.899999976158142,
								-0.10000000149011612
							]
						}
					},
					"index":1,
					"texCoord":1
				},
				"metallicRoughnessTexture":{
					"extensions":{
						"KHR_texture_transform":{
							"offset":[
								0.5999999642372131,
								1.1000000014901161
							],
							"scale":[
								1.899999976158142,
								-0.10000000149011612
							]
						}
					},
					"index":2,
					"texCoord":1
				}
			}
		},
		{
			"doubleSided":true,
			"name":"Baked_B_4.001",
			"normalTexture":{
				"extensions":{
					"KHR_texture_transform":{
						"offset":[
							0,
							0.8999998569488525
						],
						"scale":[
							1.899999976158142,
							0.10000014305114746
						]
					}
				},
				"index":3,
				"texCoord":1
			},
			"pbrMetallicRoughness":{
				"baseColorTexture":{
					"extensions":{
						"KHR_texture_transform":{
							"offset":[
								0,
								0.8999998569488525
							],
							"scale":[
								1.899999976158142,
								0.10000014305114746
							]
						}
					},
					"index":4,
					"texCoord":1
				},
				"metallicRoughnessTexture":{
					"extensions":{
						"KHR_texture_transform":{
							"offset":[
								0,
								0.8999998569488525
							],
							"scale":[
								1.899999976158142,
								0.10000014305114746
							]
						}
					},
					"index":5,
					"texCoord":1
				}
			}
		}
	],
	"meshes":[
		{
			"name":"Mesh_80.003",
			"primitives":[
				{
					"attributes":{
						"POSITION":0,
						"NORMAL":1,
						"TEXCOORD_0":2
					},
					"indices":3,
					"material":0
				}
			]
		},
		{
			"name":"Mesh_80.004",
			"primitives":[
				{
					"attributes":{
						"POSITION":4,
						"NORMAL":5,
						"TEXCOORD_0":6
					},
					"indices":7,
					"material":1
				},
				{
					"attributes":{
						"POSITION":8,
						"NORMAL":9,
						"TEXCOORD_0":10
					},
					"indices":11,
					"material":0
				}
			]
		},
		{
			"name":"Mesh_88.002",
			"primitives":[
				{
					"attributes":{
						"POSITION":12,
						"NORMAL":13,
						"TEXCOORD_0":14
					},
					"indices":15,
					"material":2
				},
				{
					"attributes":{
						"POSITION":16,
						"NORMAL":17,
						"TEXCOORD_0":18
					},
					"indices":19,
					"material":3
				}
			]
		},
		{
			"name":"Mesh_80.005",
			"primitives":[
				{
					"attributes":{
						"POSITION":20,
						"NORMAL":21,
						"TEXCOORD_0":22,
						"TEXCOORD_1":23
					},
					"indices":24,
					"material":4
				},
				{
					"attributes":{
						"POSITION":25,
						"NORMAL":26,
						"TEXCOORD_0":27,
						"TEXCOORD_1":28
					},
					"indices":29,
					"material":5
				}
			]
		},
		{
			"name":"Mesh_80.007",
			"primitives":[
				{
					"attributes":{
						"POSITION":30,
						"NORMAL":31,
						"TEXCOORD_0":32,
						"TEXCOORD_1":33
					},
					"indices":34,
					"material":6
				}
			]
		},
		{
			"name":"Plane",
			"primitives":[
				{
					"attributes":{
						"POSITION":35,
						"NORMAL":36,
						"TEXCOORD_0":37,
						"TEXCOORD_1":38
					},
					"indices":39,
					"material":7
				}
			]
		}
	],
	"textures":[
		{
			"sampler":0,
			"source":0
		},
		{
			"sampler":0,
			"source":1
		},
		{
			"sampler":0,
			"source":2
		},
		{
			"sampler":0,
			"source":0
		},
		{
			"sampler":0,
			"source":1
		},
		{
			"sampler":0,
			"source":2
		},
		{
			"sampler":0,
			"source":3
		},
		{
			"sampler":0,
			"source":4
		}
	],
	"images":[
		{
			"mimeType":"image/jpeg",
			"name":"roughnes",
			"uri":"roughnes.jpg"
		},
		{
			"mimeType":"image/jpeg",
			"name":"brown4",
			"uri":"brown4.jpg"
		},
		{
			"mimeType":"image/png",
			"name":"roughnes",
			"uri":"roughnes.png"
		},
		{
			"mimeType":"image/png",
			"name":"Image_1",
			"uri":"Image_1.png"
		},
		{
			"mimeType":"image/png",
			"name":"Image_4",
			"uri":"Image_4.png"
		}
	],
	"accessors":[
		{
			"bufferView":0,
			"componentType":5126,
			"count":113,
			"max":[
				0.04394766688346863,
				2.5214998722076416,
				-0.07699952274560928
			],
			"min":[
				-0.048921022564172745,
				-2.0804193923140701e-07,
				-1.1438000202178955
			],
			"type":"VEC3"
		},
		{
			"bufferView":1,
			"componentType":5126,
			"count":113,
			"type":"VEC3"
		},
		{
			"bufferView":2,
			"componentType":5126,
			"count":113,
			"type":"VEC2"
		},
		{
			"bufferView":3,
			"componentType":5123,
			"count":240,
			"type":"SCALAR"
		},
		{
			"bufferView":4,
			"componentType":5126,
			"count":498,
			"max":[
				0.2169506698846817,
				2.5985000133514404,
				-8.678172167208997e-17
			],
			"min":[
				0.030934790149331093,
				5.7501861050468506e-08,
				-1.2208000421524048
			],
			"type":"VEC3"
		},
		{
			"bufferView":5,
			"componentType":5126,
			"count":498,
			"type":"VEC3"
		},
		{
			"bufferView":6,
			"componentType":5126,
			"count":498,
			"type":"VEC2"
		},
		{
			"bufferView":7,
			"componentType":5123,
			"count":1002,
			"type":"SCALAR"
		},
		{
			"bufferView":8,
			"componentType":5126,
			"count":32,
			"max":[
				0.04394766688346863,
				2.363906145095825,
				-0.07700002193450928
			],
			"min":[
				0.043934211134910583,
				5.749862452830712e-08,
				-0.9448330402374268
			],
			"type":"VEC3"
		},
		{
			"bufferView":9,
			"componentType":5126,
			"count":32,
			"type":"VEC3"
		},
		{
			"bufferView":10,
			"componentType":5126,
			"count":32,
			"type":"VEC2"
		},
		{
			"bufferView":11,
			"componentType":5123,
			"count":48,
			"type":"SCALAR"
		},
		{
			"bufferView":12,
			"componentType":5126,
			"count":3506,
			"max":[
				0.020704537630081177,
				0.1330728530883789,
				0.10446628928184509
			],
			"min":[
				-0.020455460995435715,
				-0.16692715883255005,
				-0.024630829691886902
			],
			"type":"VEC3"
		},
		{
			"bufferView":13,
			"componentType":5126,
			"count":3506,
			"type":"VEC3"
		},
		{
			"bufferView":14,
			"componentType":5126,
			"count":3506,
			"type":"VEC2"
		},
		{
			"bufferView":15,
			"componentType":5123,
			"count":7815,
			"type":"SCALAR"
		},
		{
			"bufferView":16,
			"componentType":5126,
			"count":548,
			"max":[
				0.009844539687037468,
				0.08415889739990234,
				0.024508871138095856
			],
			"min":[
				0.009844539687037468,
				0.03157210350036621,
				-0.012660697102546692
			],
			"type":"VEC3"
		},
		{
			"bufferView":17,
			"componentType":5126,
			"count":548,
			"type":"VEC3"
		},
		{
			"bufferView":18,
			"componentType":5126,
			"count":548,
			"type":"VEC2"
		},
		{
			"bufferView":19,
			"componentType":5123,
			"count":1539,
			"type":"SCALAR"
		},
		{
			"bufferView":20,
			"componentType":5126,
			"count":4,
			"max":[
				0.043934788554906845,
				2.4761292934417725,
				-0.9448330402374268
			],
			"min":[
				0.043934788554906845,
				0.045370567589998245,
				-1.1557999849319458
			],
			"type":"VEC3"
		},
		{
			"bufferView":21,
			"componentType":5126,
			"count":4,
			"type":"VEC3"
		},
		{
			"bufferView":22,
			"componentType":5126,
			"count":4,
			"type":"VEC2"
		},
		{
			"bufferView":23,
			"componentType":5126,
			"count":4,
			"type":"VEC2"
		},
		{
			"bufferView":24,
			"componentType":5123,
			"count":6,
			"type":"SCALAR"
		},
		{
			"bufferView":25,
			"componentType":5126,
			"count":72,
			"max":[
				0.04427797347307205,
				2.4761292934417725,
				-0.1323699951171875
			],
			"min":[
				0.030492402613162994,
				0.04295933246612549,
				-0.9521484375
			],
			"type":"VEC3"
		},
		{
			"bufferView":26,
			"componentType":5126,
			"count":72,
			"type":"VEC3"
		},
		{
			"bufferView":27,
			"componentType":5126,
			"count":72,
			"type":"VEC2"
		},
		{
			"bufferView":28,
			"componentType":5126,
			"count":72,
			"type":"VEC2"
		},
		{
			"bufferView":29,
			"componentType":5123,
			"count":108,
			"type":"SCALAR"
		},
		{
			"bufferView":30,
			"componentType":5126,
			"count":1464,
			"max":[
				0.006892790086567402,
				1.215378761291504,
				0.7989309430122375
			],
			"min":[
				-0.006892782635986805,
				-1.2153797149658203,
				-0.004170656204223633
			],
			"type":"VEC3"
		},
		{
			"bufferView":31,
			"componentType":5126,
			"count":1464,
			"type":"VEC3"
		},
		{
			"bufferView":32,
			"componentType":5126,
			"count":1464,
			"type":"VEC2"
		},
		{
			"bufferView":33,
			"componentType":5126,
			"count":1464,
			"type":"VEC2"
		},
		{
			"bufferView":34,
			"componentType":5123,
			"count":2196,
			"type":"SCALAR"
		},
		{
			"bufferView":35,
			"componentType":5126,
			"count":4,
			"max":[
				1,
				0,
				1
			],
			"min":[
				-1,
				0,
				-1
			],
			"type":"VEC3"
		},
		{
			"bufferView":36,
			"componentType":5126,
			"count":4,
			"type":"VEC3"
		},
		{
			"bufferView":37,
			"componentType":5126,
			"count":4,
			"type":"VEC2"
		},
		{
			"bufferView":38,
			"componentType":5126,
			"count":4,
			"type":"VEC2"
		},
		{
			"bufferView":39,
			"componentType":5123,
			"count":6,
			"type":"SCALAR"
		}
	],
	"bufferViews":[
		{
			"buffer":0,
			"byteLength":1356,
			"byteOffset":0,
			"target":34962
		},
		{
			"buffer":0,
			"byteLength":1356,
			"byteOffset":1356,
			"target":34962
		},
		{
			"buffer":0,
			"byteLength":904,
			"byteOffset":2712,
			"target":34962
		},
		{
			"buffer":0,
			"byteLength":480,
			"byteOffset":3616,
			"target":34963
		},
		{
			"buffer":0,
			"byteLength":5976,
			"byteOffset":4096,
			"target":34962
		},
		{
			"buffer":0,
			"byteLength":5976,
			"byteOffset":10072,
			"target":34962
		},
		{
			"buffer":0,
			"byteLength":3984,
			"byteOffset":16048,
			"target":34962
		},
		{
			"buffer":0,
			"byteLength":2004,
			"byteOffset":20032,
			"target":34963
		},
		{
			"buffer":0,
			"byteLength":384,
			"byteOffset":22036,
			"target":34962
		},
		{
			"buffer":0,
			"byteLength":384,
			"byteOffset":22420,
			"target":34962
		},
		{
			"buffer":0,
			"byteLength":256,
			"byteOffset":22804,
			"target":34962
		},
		{
			"buffer":0,
			"byteLength":96,
			"byteOffset":23060,
			"target":34963
		},
		{
			"buffer":0,
			"byteLength":42072,
			"byteOffset":23156,
			"target":34962
		},
		{
			"buffer":0,
			"byteLength":42072,
			"byteOffset":65228,
			"target":34962
		},
		{
			"buffer":0,
			"byteLength":28048,
			"byteOffset":107300,
			"target":34962
		},
		{
			"buffer":0,
			"byteLength":15630,
			"byteOffset":135348,
			"target":34963
		},
		{
			"buffer":0,
			"byteLength":6576,
			"byteOffset":150980,
			"target":34962
		},
		{
			"buffer":0,
			"byteLength":6576,
			"byteOffset":157556,
			"target":34962
		},
		{
			"buffer":0,
			"byteLength":4384,
			"byteOffset":164132,
			"target":34962
		},
		{
			"buffer":0,
			"byteLength":3078,
			"byteOffset":168516,
			"target":34963
		},
		{
			"buffer":0,
			"byteLength":48,
			"byteOffset":171596,
			"target":34962
		},
		{
			"buffer":0,
			"byteLength":48,
			"byteOffset":171644,
			"target":34962
		},
		{
			"buffer":0,
			"byteLength":32,
			"byteOffset":171692,
			"target":34962
		},
		{
			"buffer":0,
			"byteLength":32,
			"byteOffset":171724,
			"target":34962
		},
		{
			"buffer":0,
			"byteLength":12,
			"byteOffset":171756,
			"target":34963
		},
		{
			"buffer":0,
			"byteLength":864,
			"byteOffset":171768,
			"target":34962
		},
		{
			"buffer":0,
			"byteLength":864,
			"byteOffset":172632,
			"target":34962
		},
		{
			"buffer":0,
			"byteLength":576,
			"byteOffset":173496,
			"target":34962
		},
		{
			"buffer":0,
			"byteLength":576,
			"byteOffset":174072,
			"target":34962
		},
		{
			"buffer":0,
			"byteLength":216,
			"byteOffset":174648,
			"target":34963
		},
		{
			"buffer":0,
			"byteLength":17568,
			"byteOffset":174864,
			"target":34962
		},
		{
			"buffer":0,
			"byteLength":17568,
			"byteOffset":192432,
			"target":34962
		},
		{
			"buffer":0,
			"byteLength":11712,
			"byteOffset":210000,
			"target":34962
		},
		{
			"buffer":0,
			"byteLength":11712,
			"byteOffset":221712,
			"target":34962
		},
		{
			"buffer":0,
			"byteLength":4392,
			"byteOffset":233424,
			"target":34963
		},
		{
			"buffer":0,
			"byteLength":48,
			"byteOffset":237816,
			"target":34962
		},
		{
			"buffer":0,
			"byteLength":48,
			"byteOffset":237864,
			"target":34962
		},
		{
			"buffer":0,
			"byteLength":32,
			"byteOffset":237912,
			"target":34962
		},
		{
			"buffer":0,
			"byteLength":32,
			"byteOffset":237944,
			"target":34962
		},
		{
			"buffer":0,
			"byteLength":12,
			"byteOffset":237976,
			"target":34963
		}
	],
	"samplers":[
		{
			"magFilter":9729,
			"minFilter":9987
		}
	],
	"buffers":[
		{
			"byteLength":237988,
			"uri":"DOOR2.bin"
		}
	]
}
