{
	"asset":{
		"generator":"Khronos glTF Blender I/O v5.0.21",
		"version":"2.0"
	},
	"scene":0,
	"scenes":[
		{
			"name":"Scene",
			"nodes":[
				0,
				1,
				2,
				3,
				4,
				5,
				6,
				7
			]
		}
	],
	"nodes":[
		{
			"mesh":0,
			"name":"door.001",
			"translation":[
				0.050311047583818436,
				0,
				0.4901540279388428
			]
		},
		{
			"mesh":1,
			"name":"handle.001",
			"translation":[
				0.020455460995435715,
				1.073769211769104,
				-0.5605862140655518
			]
		},
		{
			"mesh":2,
			"name":"door.003",
			"translation":[
				0,
				0,
				0.5001537799835205
			]
		},
		{
			"mesh":3,
			"name":"door.004",
			"scale":[
				0.8078573346138,
				0.0812850221991539,
				1
			],
			"translation":[
				0.038682907819747925,
				1.007457971572876,
				-0.4349980354309082
			]
		},
		{
			"mesh":4,
			"name":"Plane.001",
			"rotation":[
				0,
				0,
				-0.7071068286895752,
				0.7071068286895752
			],
			"scale":[
				0.09912313520908356,
				0.10518431663513184,
				0.10518431663513184
			],
			"translation":[
				0.03691006451845169,
				1.0074912309646606,
				-0.34209728240966797
			]
		},
		{
			"mesh":5,
			"name":"Plane",
			"translation":[
				0.04395066574215889,
				0,
				-0.19331073760986328
			]
		},
		{
			"mesh":6,
			"name":"door.005",
			"translation":[
				0.04393764212727547,
				1.2549999952316284,
				-0.08971059322357178
			]
		},
		{
			"mesh":7,
			"name":"door.006",
			"translation":[
				0,
				0,
				0.5001535415649414
			]
		}
	],
	"materials":[
		{
			"doubleSided":true,
			"name":"Baked_B_4.002",
			"pbrMetallicRoughness":{
				"baseColorTexture":{
					"index":0
				},
				"metallicRoughnessTexture":{
					"index":1
				}
			}
		},
		{
			"doubleSided":true,
			"name":"Blackhandle",
			"pbrMetallicRoughness":{
				"baseColorTexture":{
					"index":2
				},
				"metallicFactor":0.10000000149011612,
				"roughnessFactor":0.8999999761581421
			}
		},
		{
			"doubleSided":true,
			"name":"numberkey",
			"pbrMetallicRoughness":{
				"baseColorTexture":{
					"index":3
				},
				"metallicFactor":0.10000000149011612,
				"roughnessFactor":0.8999999761581421
			}
		},
		{
			"doubleSided":true,
			"name":"Baked_B_4.002",
			"pbrMetallicRoughness":{
				"baseColorTexture":{
					"index":0,
					"texCoord":1
				},
				"metallicRoughnessTexture":{
					"index":1,
					"texCoord":1
				}
			}
		},
		{
			"doubleSided":true,
			"name":"Gold",
			"pbrMetallicRoughness":{
				"metallicFactor":0.8227272629737854
			}
		},
		{
			"doubleSided":true,
			"name":"Baked_B_4.002",
			"pbrMetallicRoughness":{
				"baseColorTexture":{
					"index":0,
					"texCoord":1
				},
				"metallicRoughnessTexture":{
					"index":1,
					"texCoord":1
				}
			}
		},
		{
			"doubleSided":true,
			"name":"blaack",
			"pbrMetallicRoughness":{
				"baseColorFactor":[
					0,
					0,
					0,
					1
				],
				"metallicFactor":0,
				"roughnessFactor":0.5
			}
		},
		{
			"doubleSided":true,
			"name":"ground",
			"pbrMetallicRoughness":{
				"metallicFactor":0,
				"roughnessFactor":0.5
			}
		}
	],
	"meshes":[
		{
			"name":"Mesh_80.003",
			"primitives":[
				{
					"attributes":{
						"POSITION":0,
						"NORMAL":1,
						"TEXCOORD_0":2
					},
					"indices":3,
					"material":0
				}
			]
		},
		{
			"name":"Mesh_88.002",
			"primitives":[
				{
					"attributes":{
						"POSITION":4,
						"NORMAL":5,
						"TEXCOORD_0":6
					},
					"indices":7,
					"material":1
				},
				{
					"attributes":{
						"POSITION":8,
						"NORMAL":9,
						"TEXCOORD_0":10
					},
					"indices":11,
					"material":2
				}
			]
		},
		{
			"name":"Mesh_80.005",
			"primitives":[
				{
					"attributes":{
						"POSITION":12,
						"NORMAL":13,
						"TEXCOORD_0":14,
						"TEXCOORD_1":15
					},
					"indices":16,
					"material":3
				},
				{
					"attributes":{
						"POSITION":17,
						"NORMAL":18,
						"TEXCOORD_0":19,
						"TEXCOORD_1":20
					},
					"indices":21,
					"material":4
				}
			]
		},
		{
			"name":"Mesh_80.007",
			"primitives":[
				{
					"attributes":{
						"POSITION":22,
						"NORMAL":23,
						"TEXCOORD_0":24,
						"TEXCOORD_1":25
					},
					"indices":26,
					"material":5
				}
			]
		},
		{
			"name":"Plane.001",
			"primitives":[
				{
					"attributes":{
						"POSITION":27,
						"NORMAL":28,
						"TEXCOORD_0":29
					},
					"indices":30,
					"material":6
				}
			]
		},
		{
			"name":"Plane",
			"primitives":[
				{
					"attributes":{
						"POSITION":31,
						"NORMAL":32,
						"TEXCOORD_0":33,
						"TEXCOORD_1":34
					},
					"indices":35,
					"material":7
				}
			]
		},
		{
			"name":"Mesh_80.002",
			"primitives":[
				{
					"attributes":{
						"POSITION":36,
						"NORMAL":37,
						"TEXCOORD_0":38
					},
					"indices":16,
					"material":0
				}
			]
		},
		{
			"name":"Mesh_80.006",
			"primitives":[
				{
					"attributes":{
						"POSITION":39,
						"NORMAL":40,
						"TEXCOORD_0":41
					},
					"indices":42,
					"material":0
				}
			]
		}
	],
	"textures":[
		{
			"sampler":0,
			"source":0
		},
		{
			"sampler":0,
			"source":1
		},
		{
			"sampler":0,
			"source":2
		},
		{
			"sampler":0,
			"source":3
		}
	],
	"images":[
		{
			"mimeType":"image/jpeg",
			"name":"door_B_1",
			"uri":"door_B_1.jpg"
		},
		{
			"mimeType":"image/png",
			"name":"door_B_1_roughness",
			"uri":"door_B_1_roughness.png"
		},
		{
			"mimeType":"image/png",
			"name":"Image_1",
			"uri":"Image_1.png"
		},
		{
			"mimeType":"image/png",
			"name":"Image_4",
			"uri":"Image_4.png"
		}
	],
	"accessors":[
		{
			"bufferView":0,
			"componentType":5126,
			"count":104,
			"max":[
				0.011306945234537125,
				2.532972574234009,
				-0.055000245571136475
			],
			"min":[
				-0.048921022564172745,
				-1.8411471103263466e-07,
				-1.1438000202178955
			],
			"type":"VEC3"
		},
		{
			"bufferView":1,
			"componentType":5126,
			"count":104,
			"type":"VEC3"
		},
		{
			"bufferView":2,
			"componentType":5126,
			"count":104,
			"type":"VEC2"
		},
		{
			"bufferView":3,
			"componentType":5123,
			"count":216,
			"type":"SCALAR"
		},
		{
			"bufferView":4,
			"componentType":5126,
			"count":3506,
			"max":[
				0.020704537630081177,
				0.1330728530883789,
				0.10446628928184509
			],
			"min":[
				-0.020455460995435715,
				-0.16692715883255005,
				-0.024630829691886902
			],
			"type":"VEC3"
		},
		{
			"bufferView":5,
			"componentType":5126,
			"count":3506,
			"type":"VEC3"
		},
		{
			"bufferView":6,
			"componentType":5126,
			"count":3506,
			"type":"VEC2"
		},
		{
			"bufferView":7,
			"componentType":5123,
			"count":7815,
			"type":"SCALAR"
		},
		{
			"bufferView":8,
			"componentType":5126,
			"count":548,
			"max":[
				0.009844539687037468,
				0.08415889739990234,
				0.024508871138095856
			],
			"min":[
				0.009844539687037468,
				0.03157210350036621,
				-0.012660697102546692
			],
			"type":"VEC3"
		},
		{
			"bufferView":9,
			"componentType":5126,
			"count":548,
			"type":"VEC3"
		},
		{
			"bufferView":10,
			"componentType":5126,
			"count":548,
			"type":"VEC2"
		},
		{
			"bufferView":11,
			"componentType":5123,
			"count":1539,
			"type":"SCALAR"
		},
		{
			"bufferView":12,
			"componentType":5126,
			"count":4,
			"max":[
				0.043934788554906845,
				2.4966728687286377,
				-0.9448330402374268
			],
			"min":[
				0.043934788554906845,
				0.045370567589998245,
				-1.1557999849319458
			],
			"type":"VEC3"
		},
		{
			"bufferView":13,
			"componentType":5126,
			"count":4,
			"type":"VEC3"
		},
		{
			"bufferView":14,
			"componentType":5126,
			"count":4,
			"type":"VEC2"
		},
		{
			"bufferView":15,
			"componentType":5126,
			"count":4,
			"type":"VEC2"
		},
		{
			"bufferView":16,
			"componentType":5123,
			"count":6,
			"type":"SCALAR"
		},
		{
			"bufferView":17,
			"componentType":5126,
			"count":72,
			"max":[
				0.04427797347307205,
				2.5199625492095947,
				-0.07782533764839172
			],
			"min":[
				0.030492402613162994,
				0.019096946343779564,
				-0.9521484375
			],
			"type":"VEC3"
		},
		{
			"bufferView":18,
			"componentType":5126,
			"count":72,
			"type":"VEC3"
		},
		{
			"bufferView":19,
			"componentType":5126,
			"count":72,
			"type":"VEC2"
		},
		{
			"bufferView":20,
			"componentType":5126,
			"count":72,
			"type":"VEC2"
		},
		{
			"bufferView":21,
			"componentType":5123,
			"count":108,
			"type":"SCALAR"
		},
		{
			"bufferView":22,
			"componentType":5126,
			"count":1368,
			"max":[
				0.006892790086567402,
				1.215378761291504,
				0.8556556701660156
			],
			"min":[
				-0.006892782635986805,
				-1.2153797149658203,
				-0.004170656204223633
			],
			"type":"VEC3"
		},
		{
			"bufferView":23,
			"componentType":5126,
			"count":1368,
			"type":"VEC3"
		},
		{
			"bufferView":24,
			"componentType":5126,
			"count":1368,
			"type":"VEC2"
		},
		{
			"bufferView":25,
			"componentType":5126,
			"count":1368,
			"type":"VEC2"
		},
		{
			"bufferView":26,
			"componentType":5123,
			"count":2052,
			"type":"SCALAR"
		},
		{
			"bufferView":27,
			"componentType":5126,
			"count":4,
			"max":[
				1,
				0,
				6.841006755828857
			],
			"min":[
				-1,
				0,
				-1
			],
			"type":"VEC3"
		},
		{
			"bufferView":28,
			"componentType":5126,
			"count":4,
			"type":"VEC3"
		},
		{
			"bufferView":29,
			"componentType":5126,
			"count":4,
			"type":"VEC2"
		},
		{
			"bufferView":30,
			"componentType":5123,
			"count":6,
			"type":"SCALAR"
		},
		{
			"bufferView":31,
			"componentType":5126,
			"count":4,
			"max":[
				3.4177086353302,
				0,
				3.4177086353302
			],
			"min":[
				-3.4177086353302,
				0,
				-3.4177086353302
			],
			"type":"VEC3"
		},
		{
			"bufferView":32,
			"componentType":5126,
			"count":4,
			"type":"VEC3"
		},
		{
			"bufferView":33,
			"componentType":5126,
			"count":4,
			"type":"VEC2"
		},
		{
			"bufferView":34,
			"componentType":5126,
			"count":4,
			"type":"VEC2"
		},
		{
			"bufferView":35,
			"componentType":5123,
			"count":6,
			"type":"SCALAR"
		},
		{
			"bufferView":36,
			"componentType":5126,
			"count":4,
			"max":[
				1.002475619316101e-05,
				1.2549999952316284,
				0.508335292339325
			],
			"min":[
				-4.328787326812744e-06,
				-1.2549999952316284,
				-0.3549686670303345
			],
			"type":"VEC3"
		},
		{
			"bufferView":37,
			"componentType":5126,
			"count":4,
			"type":"VEC3"
		},
		{
			"bufferView":38,
			"componentType":5126,
			"count":4,
			"type":"VEC2"
		},
		{
			"bufferView":39,
			"componentType":5126,
			"count":402,
			"max":[
				0.2169506698846817,
				2.5985000133514404,
				-8.678172167208997e-17
			],
			"min":[
				0.030934790149331093,
				5.7501861050468506e-08,
				-1.2208000421524048
			],
			"type":"VEC3"
		},
		{
			"bufferView":40,
			"componentType":5126,
			"count":402,
			"type":"VEC3"
		},
		{
			"bufferView":41,
			"componentType":5126,
			"count":402,
			"type":"VEC2"
		},
		{
			"bufferView":42,
			"componentType":5123,
			"count":768,
			"type":"SCALAR"
		}
	],
	"bufferViews":[
		{
			"buffer":0,
			"byteLength":1248,
			"byteOffset":0,
			"target":34962
		},
		{
			"buffer":0,
			"byteLength":1248,
			"byteOffset":1248,
			"target":34962
		},
		{
			"buffer":0,
			"byteLength":832,
			"byteOffset":2496,
			"target":34962
		},
		{
			"buffer":0,
			"byteLength":432,
			"byteOffset":3328,
			"target":34963
		},
		{
			"buffer":0,
			"byteLength":42072,
			"byteOffset":3760,
			"target":34962
		},
		{
			"buffer":0,
			"byteLength":42072,
			"byteOffset":45832,
			"target":34962
		},
		{
			"buffer":0,
			"byteLength":28048,
			"byteOffset":87904,
			"target":34962
		},
		{
			"buffer":0,
			"byteLength":15630,
			"byteOffset":115952,
			"target":34963
		},
		{
			"buffer":0,
			"byteLength":6576,
			"byteOffset":131584,
			"target":34962
		},
		{
			"buffer":0,
			"byteLength":6576,
			"byteOffset":138160,
			"target":34962
		},
		{
			"buffer":0,
			"byteLength":4384,
			"byteOffset":144736,
			"target":34962
		},
		{
			"buffer":0,
			"byteLength":3078,
			"byteOffset":149120,
			"target":34963
		},
		{
			"buffer":0,
			"byteLength":48,
			"byteOffset":152200,
			"target":34962
		},
		{
			"buffer":0,
			"byteLength":48,
			"byteOffset":152248,
			"target":34962
		},
		{
			"buffer":0,
			"byteLength":32,
			"byteOffset":152296,
			"target":34962
		},
		{
			"buffer":0,
			"byteLength":32,
			"byteOffset":152328,
			"target":34962
		},
		{
			"buffer":0,
			"byteLength":12,
			"byteOffset":152360,
			"target":34963
		},
		{
			"buffer":0,
			"byteLength":864,
			"byteOffset":152372,
			"target":34962
		},
		{
			"buffer":0,
			"byteLength":864,
			"byteOffset":153236,
			"target":34962
		},
		{
			"buffer":0,
			"byteLength":576,
			"byteOffset":154100,
			"target":34962
		},
		{
			"buffer":0,
			"byteLength":576,
			"byteOffset":154676,
			"target":34962
		},
		{
			"buffer":0,
			"byteLength":216,
			"byteOffset":155252,
			"target":34963
		},
		{
			"buffer":0,
			"byteLength":16416,
			"byteOffset":155468,
			"target":34962
		},
		{
			"buffer":0,
			"byteLength":16416,
			"byteOffset":171884,
			"target":34962
		},
		{
			"buffer":0,
			"byteLength":10944,
			"byteOffset":188300,
			"target":34962
		},
		{
			"buffer":0,
			"byteLength":10944,
			"byteOffset":199244,
			"target":34962
		},
		{
			"buffer":0,
			"byteLength":4104,
			"byteOffset":210188,
			"target":34963
		},
		{
			"buffer":0,
			"byteLength":48,
			"byteOffset":214292,
			"target":34962
		},
		{
			"buffer":0,
			"byteLength":48,
			"byteOffset":214340,
			"target":34962
		},
		{
			"buffer":0,
			"byteLength":32,
			"byteOffset":214388,
			"target":34962
		},
		{
			"buffer":0,
			"byteLength":12,
			"byteOffset":214420,
			"target":34963
		},
		{
			"buffer":0,
			"byteLength":48,
			"byteOffset":214432,
			"target":34962
		},
		{
			"buffer":0,
			"byteLength":48,
			"byteOffset":214480,
			"target":34962
		},
		{
			"buffer":0,
			"byteLength":32,
			"byteOffset":214528,
			"target":34962
		},
		{
			"buffer":0,
			"byteLength":32,
			"byteOffset":214560,
			"target":34962
		},
		{
			"buffer":0,
			"byteLength":12,
			"byteOffset":214592,
			"target":34963
		},
		{
			"buffer":0,
			"byteLength":48,
			"byteOffset":214604,
			"target":34962
		},
		{
			"buffer":0,
			"byteLength":48,
			"byteOffset":214652,
			"target":34962
		},
		{
			"buffer":0,
			"byteLength":32,
			"byteOffset":214700,
			"target":34962
		},
		{
			"buffer":0,
			"byteLength":4824,
			"byteOffset":214732,
			"target":34962
		},
		{
			"buffer":0,
			"byteLength":4824,
			"byteOffset":219556,
			"target":34962
		},
		{
			"buffer":0,
			"byteLength":3216,
			"byteOffset":224380,
			"target":34962
		},
		{
			"buffer":0,
			"byteLength":1536,
			"byteOffset":227596,
			"target":34963
		}
	],
	"samplers":[
		{
			"magFilter":9729,
			"minFilter":9987
		}
	],
	"buffers":[
		{
			"byteLength":229132,
			"uri":"DOOR_B_1.bin"
		}
	]
}
